<svg width="175" height="207" viewBox="0 0 175 207" fill="none" xmlns="http://www.w3.org/2000/svg">
<g clip-path="url(#clip0_266_3561)">
<path d="M125.431 0C139.813 0.00025433 151.472 11.6943 151.472 26.1191C151.472 30.3375 150.473 34.3216 148.702 37.8486C148.788 37.8478 148.873 37.8457 148.959 37.8457C163.341 37.8459 175 49.5392 175 63.9639C175 78.3888 163.341 90.0828 148.959 90.083C144.687 90.083 140.655 89.0504 137.098 87.2217C137.159 87.9522 137.192 88.6911 137.192 89.4375C137.192 101.936 128.438 112.383 116.744 114.95C120.199 119.382 122.259 124.961 122.259 131.023C122.259 142.723 114.59 152.626 104.019 155.95C111.317 158.246 117.232 163.676 120.195 170.669C124.158 161.316 133.401 154.758 144.172 154.758C158.554 154.758 170.214 166.451 170.214 180.876C170.214 195.301 158.554 206.995 144.172 206.995C133.401 206.995 124.158 200.436 120.195 191.083C116.233 200.436 106.989 206.995 96.2178 206.995C85.7779 206.995 76.7744 200.833 72.6221 191.938C68.4697 200.833 59.4662 206.995 49.0264 206.995C34.6441 206.995 22.9854 195.301 22.9854 180.876C22.9855 169.557 30.164 159.92 40.2041 156.295C31.7978 151.963 26.0459 143.18 26.0459 133.049C26.0459 131.063 26.2678 129.129 26.6865 127.27C26.4721 127.275 26.2567 127.278 26.041 127.278C11.6589 127.278 0 115.584 0 101.159C0.000240344 86.9257 11.3521 75.3523 25.4707 75.0479C20.8298 70.3313 17.9639 63.8533 17.9639 56.7031C17.9639 42.2781 29.6236 30.584 44.0059 30.584C52.3672 30.5841 59.8066 34.538 64.5713 40.6816C66.6405 28.3322 77.349 18.9229 90.25 18.9229C93.6716 18.9229 96.9386 19.586 99.9316 20.7891C102.385 8.92005 112.869 0 125.431 0ZM74.7842 145.859C71.7377 151.277 66.82 155.495 60.9092 157.629C66.035 160.27 70.1723 164.567 72.6221 169.814C75.6934 163.235 81.4183 158.151 88.416 155.95C82.8245 154.191 78.0462 150.591 74.7842 145.859ZM69.6826 61.0625C67.6441 73.2298 57.2208 82.5422 44.5752 82.8145C49.2164 87.5309 52.0829 94.0089 52.083 101.159C52.083 103.145 51.8599 105.079 51.4414 106.938C51.6562 106.932 51.8718 106.931 52.0879 106.931C60.9754 106.931 68.8214 111.397 73.5205 118.213C77.1062 111.836 83.2853 107.122 90.623 105.511C87.1685 101.079 85.1094 95.4992 85.1094 89.4375C85.1095 82.2647 87.9922 75.7671 92.6592 71.0469C91.8658 71.1199 91.0624 71.1601 90.25 71.1602C81.8881 71.1602 74.4473 67.2068 69.6826 61.0625ZM115.747 50.3701C114.706 55.4074 112.219 59.9131 108.74 63.4316C109.534 63.3586 110.338 63.3193 111.15 63.3193C115.422 63.3193 119.454 64.3513 123.011 66.1797C122.95 65.4493 122.917 64.7101 122.917 63.9639C122.917 59.7452 123.916 55.7606 125.687 52.2334C125.601 52.2342 125.516 52.2373 125.431 52.2373C122.008 52.2373 118.741 51.5736 115.747 50.3701Z" fill="#EE6AB7" fill-opacity="0.95"/>
</g>
<defs>
<clipPath id="clip0_266_3561">
<rect width="175" height="207" fill="white"/>
</clipPath>
</defs>
</svg>
